<svg version="1.1" id="Layer_1" xmlns="http://www.w3.org/2000/svg" xmlns:xlink="http://www.w3.org/1999/xlink" x="0px" y="0px"
	 width="100%" viewBox="0 0 225 225" enable-background="new 0 0 225 225" xml:space="preserve">
<path fill="#FF9801" opacity="1.000000" stroke="none" 
	d="
M1.000000,93.000000 
	C1.000000,68.979103 1.000000,44.958210 1.351726,20.436066 
	C5.476626,11.895048 10.618673,5.243445 19.460104,2.283540 
	C19.750731,2.186245 19.824921,1.442438 20.000000,1.000000 
	C81.687561,1.000000 143.375122,1.000000 205.625977,1.340257 
	C214.081192,4.650295 220.404984,9.366884 223.855423,17.362715 
	C224.408707,18.644873 225.277222,19.790993 226.000000,21.000000 
	C226.000000,82.687561 226.000000,144.375122 225.647781,206.563995 
	C221.837097,214.086853 217.663940,220.433456 210.055191,223.670288 
	C208.630859,224.276199 207.348099,225.214890 206.000000,226.000000 
	C185.645767,226.000000 165.291550,226.000000 144.682098,225.736450 
	C153.929764,219.883301 162.388214,213.107727 169.295853,204.083832 
	C160.244553,195.499878 151.493713,187.200882 142.726562,178.886414 
	C114.159821,212.049026 69.341049,205.291580 48.701679,185.022446 
	C25.900230,162.630035 24.871342,121.269409 46.539776,97.835732 
	C67.817291,74.824821 114.669716,68.829147 142.827194,101.521439 
	C151.639404,93.236076 160.437073,84.964401 169.365143,76.570114 
	C168.002411,74.994987 166.951691,73.720848 165.839005,72.503387 
	C150.595444,55.824593 131.455917,46.591785 109.307426,43.523197 
	C79.212471,39.353649 51.394638,45.018230 26.709616,63.503731 
	C16.020485,71.508339 8.188189,81.964027 1.000000,93.000000 
z"/>
<path fill="#FFFEFD" opacity="1.000000" stroke="none" 
	d="
M1.000000,93.468658 
	C8.188189,81.964027 16.020485,71.508339 26.709616,63.503731 
	C51.394638,45.018230 79.212471,39.353649 109.307426,43.523197 
	C131.455917,46.591785 150.595444,55.824593 165.839005,72.503387 
	C166.951691,73.720848 168.002411,74.994987 169.365143,76.570114 
	C160.437073,84.964401 151.639404,93.236076 142.827194,101.521439 
	C114.669716,68.829147 67.817291,74.824821 46.539776,97.835732 
	C24.871342,121.269409 25.900230,162.630035 48.701679,185.022446 
	C69.341049,205.291580 114.159821,212.049026 142.726562,178.886414 
	C151.493713,187.200882 160.244553,195.499878 169.295853,204.083832 
	C162.388214,213.107727 153.929764,219.883301 144.213440,225.736450 
	C96.408997,226.000000 48.817993,226.000000 1.000000,226.000000 
	C1.000000,181.979370 1.000000,137.958344 1.000000,93.468658 
z"/>
<path fill="#FFFCF9" opacity="1.000000" stroke="none" 
	d="
M226.000000,20.530956 
	C225.277222,19.790993 224.408707,18.644873 223.855423,17.362715 
	C220.404984,9.366884 214.081192,4.650295 206.094635,1.340257 
	C212.592728,1.000000 219.185455,1.000000 226.000000,1.000000 
	C226.000000,7.352261 226.000000,13.707088 226.000000,20.530956 
z"/>
<path fill="#FFFCF9" opacity="1.000000" stroke="none" 
	d="
M206.469040,226.000000 
	C207.348099,225.214890 208.630859,224.276199 210.055191,223.670288 
	C217.663940,220.433456 221.837097,214.086853 225.647781,207.032654 
	C226.000000,213.261261 226.000000,219.522537 226.000000,226.000000 
	C219.647644,226.000000 213.292862,226.000000 206.469040,226.000000 
z"/>
<path fill="#FFFCF8" opacity="1.000000" stroke="none" 
	d="
M19.530624,1.000000 
	C19.824921,1.442438 19.750731,2.186245 19.460104,2.283540 
	C10.618673,5.243445 5.476626,11.895048 1.351726,19.967407 
	C1.000000,13.740766 1.000000,7.481532 1.000000,1.000000 
	C7.018606,1.000000 13.039927,1.000000 19.530624,1.000000 
z"/>
</svg>